<?xml version="1.0" ?><svg version="1.1" viewBox="4.84784004584071E-06 -0.362670987844467 170.223002354308 149.695663541555" xmlns="http://www.w3.org/2000/svg" xmlns:xlink="http://www.w3.org/1999/xlink"><defs><linearGradient id="def0" x1="0.500765" x2="0.500765" y1="1.0215" y2="-0.0214957"><stop offset="0" stop-color="#3F3F40"/><stop offset="0.0299988" stop-color="#444544"/><stop offset="0.910004" stop-color="#98999B"/><stop offset="0.940002" stop-color="#CFD1D2"/><stop offset="1" stop-color="#A6A8A9"/></linearGradient></defs><g><path d="M7.85067,-0.362671C3.53067,-0.362671,4.84784E-06,3.17465,4.84784E-06,7.504L4.84784E-06,141.464C4.84784E-06,145.792,3.53067,149.333,7.85067,149.333L162.632,149.333C166.26,149.333,169.332,146.835,170.223,143.472L170.223,5.496C169.332,2.13333,166.26,-0.362671,162.632,-0.362671L7.85067,-0.362671z" fill="url(#def0)"/><path d="M10.6693,138.42L159.813,138.42 159.813,13.8907 10.6693,13.8907 10.6693,138.42z" fill="#000000"/><path d="M12.0124,12.5439L12.0124,137.071 161.159,137.071 161.159,139.764 10.6697,139.764 9.3244,139.764 9.3244,138.42 9.3244,12.5439 12.0124,12.5439z" fill="#58595B"/><path d="M158.47,139.764L158.47,15.2413 9.32467,15.2413 9.32467,12.544 159.814,12.544 161.159,12.544 161.159,13.8907 161.159,139.764 158.47,139.764z" fill="#C0C3C5"/><path d="M12.0124,123.41L158.47,48.6885 158.47,15.2419 12.0124,15.2419 12.0124,123.41z" fill="#000002"/><path d="M39.196,64.4815L39.196,54.2161 83.692,73.8348 83.692,81.9308 39.196,101.661 39.196,91.6255 72.3107,77.8641 39.196,64.4815z" fill="#FFFFFF"/><path d="M130.027,87.596L92.2533,87.596 92.2533,80.4067 130.027,80.4067 130.027,87.596z" fill="#FFFFFF"/></g></svg>