<?xml version="1.0" encoding="UTF-8" standalone="no"?>
<!-- Created with Inkscape (http://www.inkscape.org/) -->

<svg
   xmlns:dc="http://purl.org/dc/elements/1.1/"
   xmlns:cc="http://creativecommons.org/ns#"
   xmlns:rdf="http://www.w3.org/1999/02/22-rdf-syntax-ns#"
   xmlns:svg="http://www.w3.org/2000/svg"
   xmlns="http://www.w3.org/2000/svg"
   xmlns:xlink="http://www.w3.org/1999/xlink"
   xmlns:sodipodi="http://sodipodi.sourceforge.net/DTD/sodipodi-0.dtd"
   xmlns:inkscape="http://www.inkscape.org/namespaces/inkscape"
   width="210mm"
   height="297mm"
   viewBox="0 0 210 297"
   version="1.1"
   id="svg8"
   inkscape:version="0.92.3 (2405546, 2018-03-11)"
   sodipodi:docname="icon.svg">
  <defs
     id="defs2">
    <linearGradient
       inkscape:collect="always"
       id="linearGradient4600">
      <stop
         style="stop-color:#0000f8;stop-opacity:1;"
         offset="0"
         id="stop4596" />
      <stop
         style="stop-color:#0000f8;stop-opacity:0;"
         offset="1"
         id="stop4598" />
    </linearGradient>
    <linearGradient
       inkscape:collect="always"
       xlink:href="#linearGradient4600"
       id="linearGradient4602"
       x1="122.50334"
       y1="1.6434687"
       x2="127.51664"
       y2="1.6434687"
       gradientUnits="userSpaceOnUse"
       spreadMethod="pad" />
  </defs>
  <sodipodi:namedview
     id="base"
     pagecolor="#ffffff"
     bordercolor="#666666"
     borderopacity="1.0"
     inkscape:pageopacity="0.0"
     inkscape:pageshadow="2"
     inkscape:zoom="2.8"
     inkscape:cx="566.26159"
     inkscape:cy="729.41397"
     inkscape:document-units="mm"
     inkscape:current-layer="layer1"
     showgrid="false"
     inkscape:window-width="2560"
     inkscape:window-height="1378"
     inkscape:window-x="-8"
     inkscape:window-y="-8"
     inkscape:window-maximized="1" />
  <metadata
     id="metadata5">
    <rdf:RDF>
      <cc:Work
         rdf:about="">
        <dc:format>image/svg+xml</dc:format>
        <dc:type
           rdf:resource="http://purl.org/dc/dcmitype/StillImage" />
        <dc:title></dc:title>
      </cc:Work>
    </rdf:RDF>
  </metadata>
  <g
     inkscape:label="Layer 1"
     inkscape:groupmode="layer"
     id="layer1">
    <rect
       id="rect4520"
       width="24.748674"
       height="4.7541633"
       x="102.5786"
       y="-0.73954993"
       style="fill:none;fill-opacity:1;stroke:#000000;stroke-width:0.37874526;stroke-opacity:1"
       transform="matrix(0.79433778,0.60747633,-0.67732254,0.73568619,0,0)"
       inkscape:export-filename="E:\GitHub_Reps\Injector_GUI\images\injector.png"
       inkscape:export-xdpi="96"
       inkscape:export-ydpi="96" />
    <rect
       transform="matrix(0.79433778,0.60747633,-0.67732254,0.73568619,0,0)"
       style="fill:none;fill-opacity:1;stroke:#000000;stroke-width:0.37874526;stroke-opacity:1"
       y="-0.73954993"
       x="102.5786"
       height="4.7541633"
       width="24.748674"
       id="rect4534"
       inkscape:export-filename="E:\GitHub_Reps\Injector_GUI\images\injector.png"
       inkscape:export-xdpi="96"
       inkscape:export-ydpi="96" />
    <path
       style="fill:none;stroke:#000000;stroke-width:0.26458332px;stroke-linecap:butt;stroke-linejoin:miter;stroke-opacity:1"
       d="m 100.11644,78.529761 c 0.22254,0.222536 0.19917,0.174461 0.37798,0.472469 0.0362,0.0604 0.0522,0.132644 0.0945,0.188989 0.0535,0.07127 0.13554,0.117716 0.18899,0.188987 0.0423,0.05635 0.0522,0.132644 0.0945,0.188989 0.0535,0.07127 0.13554,0.117716 0.18899,0.188987 0.0315,0.063 0.063,0.125994 0.0945,0.188989 0,0.0315 -0.0141,0.06632 0,0.09449 0.0332,0.06632 0.25032,0.217162 0.28348,0.283483 0.0141,0.02817 -0.0141,0.06632 0,0.09449 0.0199,0.03984 0.063,0.063 0.0945,0.0945 0.0315,0.0315 0.0547,0.07457 0.0945,0.09449 0.0282,0.01408 0.0663,-0.01407 0.0945,0 0.0797,0.03984 0.10447,0.160817 0.18899,0.18899 0.0598,0.01992 0.13264,-0.02817 0.18899,0 0.0797,0.03984 0.11771,0.135532 0.18898,0.188986 0.0563,0.04226 0.126,0.063 0.18899,0.09449 0.063,0.0315 0.11993,0.08068 0.18899,0.0945 0.53739,0 0.0622,-0.04226 0.47247,0.09449 0.0299,0.01 0.063,0 0.0945,0 0.0945,0 0.18898,0 0.28348,0 0.063,0 0.12599,0 0.18899,0 0.0945,0 0.18971,0.01172 0.28348,0 0.15937,-0.01992 0.31568,-0.05965 0.47247,-0.09449 0.16598,-0.03688 0.49147,-0.116138 0.66146,-0.188989 0.12947,-0.05549 0.24608,-0.139528 0.37797,-0.188986 0.1216,-0.0456 0.25311,-0.05882 0.37798,-0.0945 0.13446,-0.03842 0.34701,-0.105349 0.47247,-0.188987 0.0371,-0.02471 0.0698,-0.05743 0.0945,-0.0945 0.0391,-0.0586 0.0359,-0.149918 0.0945,-0.188986 0.0524,-0.03494 0.13657,0.03494 0.18899,0 0.0574,-0.114756 0.0808,-0.211334 0.18898,-0.283483 0.0586,-0.03907 0.13039,-0.05542 0.18899,-0.09449 0.0371,-0.02471 0.063,-0.063 0.0945,-0.0945 0.0945,-0.09449 0.18898,-0.188987 0.28348,-0.28348 0.0315,-0.0315 0.063,-0.063 0.0945,-0.0945 0.0315,-0.0315 0.0698,-0.05743 0.0945,-0.09449 0.0391,-0.0586 0.0554,-0.130384 0.0945,-0.18899 0.0247,-0.03706 0.063,-0.06299 0.0945,-0.09449 0.042,-0.04198 0.14701,-0.147005 0.18899,-0.188986 0.0315,-0.0315 0.0698,-0.05743 0.0945,-0.0945 0.0781,-0.117205 0.11085,-0.260771 0.18899,-0.377976 0.0247,-0.03706 0.0698,-0.05743 0.0945,-0.09449 0.0391,-0.0586 0.0447,-0.139187 0.0945,-0.18899 0.0498,-0.0498 0.13919,-0.04469 0.18899,-0.09449 0.0498,-0.0498 0.063,-0.125992 0.0945,-0.188989 0.22161,-0.443209 -0.0445,0.111363 0.18899,-0.472469 0.0315,-0.063 0.063,-0.125992 0.0945,-0.188989 0,-0.0315 -0.01,-0.06461 0,-0.09449 0.0223,-0.06682 0.0774,-0.120658 0.0945,-0.188986 0.0153,-0.06112 -0.0199,-0.129226 0,-0.18899 0.0141,-0.04226 0.0837,-0.05128 0.0945,-0.09449 0.0229,-0.09167 0,-0.188989 0,-0.283482 0,-0.251984 0,-0.503968 0,-0.755952 0,-0.125992 0,-0.251984 0,-0.377978 0,-0.063 0.0153,-0.127871 0,-0.188987 -0.0171,-0.06833 -0.0774,-0.120661 -0.0945,-0.188989 -0.0153,-0.06111 0,-0.125992 0,-0.188987 0,-0.0315 0.01,-0.06461 0,-0.0945 -0.0223,-0.06682 -0.0774,-0.120658 -0.0945,-0.188986 -0.0153,-0.06112 0.0199,-0.129226 0,-0.18899 -0.0141,-0.04226 -0.0698,-0.05743 -0.0945,-0.09449 -0.0391,-0.0586 -0.0554,-0.130384 -0.0945,-0.188989 -0.0247,-0.03706 -0.0698,-0.05743 -0.0945,-0.09449 -0.0391,-0.0586 -0.0554,-0.130384 -0.0945,-0.188987 -0.0247,-0.03706 -0.0746,-0.05465 -0.0945,-0.0945 -0.0141,-0.02817 0.0141,-0.06632 0,-0.09449 -0.0399,-0.07968 -0.14915,-0.109305 -0.18899,-0.188989 -0.0141,-0.02817 0.0141,-0.06632 0,-0.09449 -0.10447,-0.208931 -0.0587,-0.02932 -0.18899,-0.09449 -0.0398,-0.01992 -0.063,-0.063 -0.0945,-0.09449 -0.0315,-0.0315 -0.063,-0.063 -0.0945,-0.0945 -0.0315,-0.0315 -0.0698,-0.05743 -0.0945,-0.09449 -0.0918,-0.137705 -0.059,-0.196818 -0.18899,-0.283482 -0.34325,-0.22883 -0.0668,0.02767 -0.28348,-0.188987 -0.0945,-0.0945 -0.18899,-0.188989 -0.28348,-0.283482 -0.0315,-0.0315 -0.0547,-0.07457 -0.0945,-0.0945 -0.0282,-0.01408 -0.0663,0.01408 -0.0945,0 -0.0398,-0.01992 -0.0546,-0.07457 -0.0945,-0.09449 -0.0394,-0.01971 -0.16699,0.02199 -0.18898,0 -0.0223,-0.02228 0.0223,-0.07222 0,-0.09449 -0.0223,-0.02228 -0.0663,0.01408 -0.0945,0 -0.43246,-0.21623 0.40098,0.03916 -0.28348,-0.188989 -0.0598,-0.01992 -0.13264,0.02817 -0.18899,0 -0.0398,-0.01992 -0.0547,-0.07457 -0.0945,-0.09449 -0.0282,-0.01408 -0.063,0 -0.0945,0 -0.063,-0.0315 -0.13038,-0.05542 -0.18898,-0.09449 -0.0371,-0.02471 -0.0547,-0.07457 -0.0945,-0.0945 -0.0563,-0.02817 -0.13264,0.02817 -0.18899,0 -0.0797,-0.03984 -0.1093,-0.149146 -0.18898,-0.188987 -0.0282,-0.01408 -0.0663,0.01408 -0.0945,0 -0.0398,-0.01992 -0.0547,-0.07457 -0.0945,-0.09449 -0.0282,-0.01408 -0.0646,0.0099 -0.0945,0 -0.68446,-0.228156 0.14898,0.02724 -0.28348,-0.18899 -0.0282,-0.01407 -0.0663,0.01408 -0.0945,0 -0.0399,-0.01992 -0.0546,-0.07457 -0.0945,-0.09449 -0.0282,-0.01408 -0.0722,0.02228 -0.0945,0 -0.0498,-0.0498 -0.0554,-0.130386 -0.0945,-0.188989 -0.0247,-0.03706 -0.063,-0.063 -0.0945,-0.09449 -0.0945,-0.09449 -0.18899,-0.18899 -0.28348,-0.283483 -0.0315,-0.0315 -0.0698,-0.05743 -0.0945,-0.09449 -0.0781,-0.117205 -0.11085,-0.260771 -0.18898,-0.377976 -0.0247,-0.03706 -0.0804,-0.05224 -0.0945,-0.0945 -0.0199,-0.05976 0,-0.125992 0,-0.188986 -0.0315,-0.063 -0.0722,-0.122172 -0.0945,-0.18899 -0.01,-0.02988 0,-0.06299 0,-0.09449 0,-0.063 0.0199,-0.129225 0,-0.188989 -0.0141,-0.04226 -0.0746,-0.05465 -0.0945,-0.09449 -0.0141,-0.02817 0,-0.063 0,-0.09449 0,-0.0315 0,-0.063 0,-0.0945 0,-0.157488 0,-0.314978 0,-0.472469 0,-0.188989 0,-0.377976 0,-0.566965 0,-0.06299 0,-0.125992 0,-0.188986 0,-0.063 -0.0153,-0.127874 0,-0.18899 0.0171,-0.06833 0.0722,-0.122171 0.0945,-0.188986 0.0199,-0.05976 -0.0282,-0.132644 0,-0.188989 0.0199,-0.03984 0.0746,-0.05465 0.0945,-0.09449 0.0141,-0.02817 -0.01,-0.06461 0,-0.0945 0.0223,-0.06682 0.0722,-0.122168 0.0945,-0.188986 0.01,-0.02988 -0.0223,-0.07222 0,-0.09449 0.19551,-0.195513 -0.008,0.298768 0.18898,-0.0945 0.13904,-0.278077 -0.2189,0.12441 0.0945,-0.188986 0.0315,-0.0315 0.0546,-0.07457 0.0945,-0.0945 0.0282,-0.01408 0.063,0 0.0945,0 0.063,-0.0315 0.12599,-0.063 0.18899,-0.09449 0.12599,-0.063 0.25198,-0.125992 0.37797,-0.188987 0.063,-0.0315 0.12217,-0.07222 0.18899,-0.0945 0.0299,-0.0099 0.0663,0.01408 0.0945,0 0.0398,-0.01992 0.0546,-0.07457 0.0945,-0.09449 0.0282,-0.01408 0.063,0 0.0945,0 0.063,0 0.12722,-0.01236 0.18899,0 0.12735,0.02548 0.2489,0.08015 0.37798,0.09449 0.15652,0.01738 0.31498,0 0.47246,0 0.0945,0 0.19083,-0.01852 0.28349,0 0.0691,0.01381 0.12066,0.07741 0.18899,0.0945 0.0611,0.01527 0.12599,0 0.18898,0 0.063,0.0315 0.12217,0.07222 0.18899,0.09449 0.026,0.0087 0.24339,0 0.28348,0 0.0315,0 0.0663,-0.01407 0.0945,0 0.31339,0.313397 -0.0891,-0.04454 0.18899,0.09449 0.0398,0.01992 0.0546,0.07457 0.0945,0.09449 0.0563,0.02817 0.13264,-0.02817 0.18899,0 0.0398,0.01992 0.0546,0.07457 0.0945,0.0945 0.0564,0.02817 0.13264,-0.02817 0.18899,0 0.0398,0.01992 0.0522,0.08041 0.0945,0.09449 0.001,2.65e-4 0.9386,0.187582 0.94494,0.188989 0.12677,0.02817 0.2491,0.07839 0.37797,0.09449 0.12502,0.01564 0.25325,-0.01781 0.37798,0 0.64515,0.09216 -0.0141,0.06734 0.47247,0.188986 0.0611,0.01527 0.12599,0 0.18899,0 0.18032,0 0.0138,-0.02228 0.18898,0.0945 0.0586,0.03907 0.12599,0.063 0.18899,0.09449 0.063,0.0315 0.12599,0.063 0.18899,0.09449 0.063,0.0315 0.13264,0.05224 0.18899,0.0945 0.0713,0.05345 0.12599,0.125992 0.18899,0.188986 0.063,0.063 0.12599,0.125992 0.18898,0.18899 0.063,0.06299 0.11943,0.133334 0.18899,0.188986 0.0887,0.07095 0.20318,0.108686 0.28349,0.188989 0.0498,0.0498 0.0522,0.132644 0.0945,0.188987 0.0534,0.07127 0.13553,0.117718 0.18899,0.188989 0.0423,0.05635 0.0447,0.139187 0.0945,0.188989 0.0498,0.0498 0.13919,0.04469 0.18899,0.09449 0.006,0.0061 0.17725,0.360373 0.18899,0.377976 0.0247,0.03706 0.0804,0.05223 0.0945,0.09449 0.0199,0.05976 -0.0199,0.129225 0,0.188989 0.0141,0.04226 0.0698,0.05743 0.0945,0.09449 0.0315,0.063 0.063,0.125992 0.0945,0.18899 0,0.0315 -0.0141,0.06632 0,0.09449 0.0199,0.03984 0.0804,0.05223 0.0945,0.09449 0.0199,0.05976 -0.0153,0.127873 0,0.188989 0.0171,0.06833 0.0774,0.120658 0.0945,0.188987 0.0153,0.06112 -0.0153,0.127873 0,0.188989 0.0171,0.06833 0.0774,0.120661 0.0945,0.188989 0.0153,0.06111 -0.0153,0.127874 0,0.188987 0.0171,0.06833 0.0774,0.120661 0.0945,0.188989 0.0306,0.12223 -0.0247,0.254431 0,0.377976 0.0195,0.09767 0.075,0.185812 0.0945,0.283483 0.0247,0.123544 -0.0306,0.255746 0,0.377975 0.0171,0.06833 0.0774,0.120658 0.0945,0.188987 0.0153,0.06112 0,0.125994 0,0.188989 0,0.09449 -0.0185,0.190823 0,0.283483 0.0138,0.06906 0.0807,0.119925 0.0945,0.188986 0.0185,0.09266 0,0.188989 0,0.283483 0,0.188989 0,0.377976 0,0.566965 0,0.09449 -0.0155,0.190275 0,0.283482 0.0164,0.09825 0.0781,0.185232 0.0945,0.283483 0.0155,0.09321 0,0.188986 0,0.283482 0,0.125992 0,0.251984 0,0.377976 0,0.314979 0,0.62996 0,0.944941 0,0.472469 0,0.944938 0,1.41741 0,0.157491 0,0.314981 0,0.472469 0,0.0315 0,0.063 0,0.0945 0,0.063 0.0199,0.129222 0,0.188987 -0.0141,0.04226 -0.0746,0.05465 -0.0945,0.09449 -0.0141,0.02817 0,0.063 0,0.0945 0,0.06299 0.0153,0.127873 0,0.188986 0.057,0.17103 -0.15308,0.175745 -0.18899,0.283483 -0.0199,0.05976 0.0153,0.127873 0,0.188989 -0.0171,0.06833 -0.063,0.125992 -0.0945,0.188987 -0.0315,0.063 -0.0447,0.139186 -0.0945,0.188989 -0.0498,0.0498 -0.14992,0.03589 -0.18899,0.09449 -0.0349,0.05242 0.0153,0.127873 0,0.188989 -0.11407,0.456306 -0.0449,-0.0047 -0.18898,0.283483 -0.0141,0.02817 0.0141,0.06632 0,0.09449 -0.0199,0.03984 -0.0804,0.05223 -0.0945,0.09449 -0.0199,0.05976 0.0199,0.129225 0,0.188989 -0.0282,0.08452 -0.14915,0.109302 -0.18899,0.188986 -0.0141,0.02817 0.01,0.06461 0,0.0945 -0.0223,0.06681 -0.063,0.125992 -0.0945,0.188987 -0.0315,0.063 -0.0554,0.130387 -0.0945,0.188989 -0.0247,0.03706 -0.0746,0.05465 -0.0945,0.09449 -0.0141,0.02817 0.0141,0.06632 0,0.09449 -0.0398,0.07968 -0.14914,0.109304 -0.18899,0.188989 -0.0141,0.02817 0.0141,0.06632 0,0.09449 -0.0199,0.03984 -0.063,0.063 -0.0945,0.09449 -0.0315,0.0315 -0.063,0.063 -0.0945,0.0945 -0.063,0.063 -0.126,0.125992 -0.18899,0.188987 -0.0315,0.0315 -0.0547,0.07457 -0.0945,0.0945 -0.0282,0.01408 -0.0663,-0.01408 -0.0945,0 -0.0398,0.01992 -0.063,0.063 -0.0945,0.09449 -0.0315,0.0315 -0.063,0.063 -0.0945,0.09449 -0.0315,0.0315 -0.0698,0.05743 -0.0945,0.09449 -0.0391,0.05861 -0.0447,0.139186 -0.0945,0.188989 -0.22951,0.229508 -0.13875,-0.0281 -0.28348,0.188989 -0.0391,0.0586 -0.0554,0.130384 -0.0945,0.188987 -0.0247,0.03706 -0.063,0.063 -0.0945,0.09449 -0.0315,0.0315 -0.063,0.063 -0.0945,0.0945 -0.063,0.063 -0.12599,0.125992 -0.18899,0.188987 -0.0315,0.0315 -0.0804,0.05224 -0.0945,0.0945 -0.0199,0.05976 0.0282,0.13264 0,0.188986 -0.0141,0.02817 -0.0663,-0.01408 -0.0945,0 -0.0398,0.01992 -0.063,0.063 -0.0945,0.09449 -0.126,0.125995 -0.25199,0.251987 -0.37798,0.377979 -0.0315,0.0315 -0.063,0.063 -0.0945,0.09449 -0.0315,0.0315 -0.0574,0.06978 -0.0945,0.09449 -0.0586,0.03907 -0.13038,0.05542 -0.18898,0.09449 -0.0371,0.02471 -0.063,0.063 -0.0945,0.0945 -0.0315,0.0315 -0.063,0.06299 -0.0945,0.09449 -0.0315,0.0315 -0.0546,0.07457 -0.0945,0.09449 -0.0282,0.01408 -0.0663,-0.01408 -0.0945,0 -0.0398,0.01992 -0.063,0.063 -0.0945,0.0945 -0.0315,0.0315 -0.0746,0.05465 -0.0945,0.09449 -0.0141,0.02817 0.0223,0.07222 0,0.09449 -0.0223,0.02228 -0.0663,-0.01408 -0.0945,0 -0.0663,0.03316 -0.21717,0.250322 -0.28349,0.283482 -0.0282,0.01408 -0.0722,-0.02228 -0.0945,0 -0.0223,0.02228 0.0141,0.06632 0,0.09449 -0.0199,0.03984 -0.063,0.063 -0.0945,0.0945 -0.0315,0.0315 -0.063,0.06299 -0.0945,0.09449"
       id="path4542"
       inkscape:connector-curvature="0"
       inkscape:export-filename="E:\GitHub_Reps\Injector_GUI\images\injector.png"
       inkscape:export-xdpi="96"
       inkscape:export-ydpi="96" />
    <path
       style="fill:none;stroke:#000000;stroke-width:0.26458332px;stroke-linecap:butt;stroke-linejoin:miter;stroke-opacity:1"
       d="M 96.083395,75.834465 77.002115,60.840509"
       id="path4546"
       inkscape:connector-curvature="0"
       sodipodi:nodetypes="cc"
       inkscape:export-filename="E:\GitHub_Reps\Injector_GUI\images\injector.png"
       inkscape:export-xdpi="96"
       inkscape:export-ydpi="96" />
    <rect
       id="rect4552"
       width="4.6345611"
       height="4.7422891"
       x="122.69271"
       y="-0.72767586"
       style="fill:url(#linearGradient4602);fill-opacity:1;stroke:#000000;stroke-width:0.37878856;stroke-opacity:1;stroke-miterlimit:4;stroke-dasharray:none;fill-rule:nonzero"
       transform="matrix(0.79433778,0.60747633,-0.67732254,0.73568619,0,0)"
       inkscape:export-filename="E:\GitHub_Reps\Injector_GUI\images\injector.png"
       inkscape:export-xdpi="96"
       inkscape:export-ydpi="96" />
    <path
       style="fill:none;stroke:#000000;stroke-width:0.26458332px;stroke-linecap:butt;stroke-linejoin:miter;stroke-opacity:1"
       d="m 74.839285,63.127231 3.96875,-4.346726"
       id="path4592"
       inkscape:connector-curvature="0"
       inkscape:export-filename="E:\GitHub_Reps\Injector_GUI\images\injector.png"
       inkscape:export-xdpi="96"
       inkscape:export-ydpi="96" />
    <ellipse
       style="fill:#0000ea;fill-opacity:0.86976743;stroke:none;stroke-width:0.26458332;stroke-opacity:1"
       id="path4594"
       cx="108.48859"
       cy="85.720741"
       rx="0.40156776"
       ry="0.94495738"
       inkscape:export-filename="E:\GitHub_Reps\Injector_GUI\images\injector.png"
       inkscape:export-xdpi="96"
       inkscape:export-ydpi="96" />
  </g>
</svg>
